<svg width="20" height="22" viewBox="0 0 20 22" fill="none" xmlns="http://www.w3.org/2000/svg">
<path d="M19.697 15.468C19.677 15.452 17.557 13.828 17.594 9.43801C17.614 6.90501 16.782 4.65601 15.247 3.10401C13.872 1.71101 12.01 0.940007 10.005 0.932007H9.99204C7.98804 0.940007 6.12604 1.71201 4.75004 3.10401C3.21604 4.65701 2.38304 6.90601 2.40404 9.43701C2.44104 13.769 0.384036 15.404 0.302036 15.467C0.0420358 15.661 -0.0639643 15.997 0.0370357 16.305C0.138036 16.613 0.427036 16.82 0.750036 16.82H5.24404C5.34404 19.364 7.43204 21.407 10 21.407C12.568 21.407 14.655 19.364 14.756 16.82H19.25C19.574 16.82 19.86 16.612 19.962 16.305C20.064 15.998 19.957 15.661 19.697 15.468ZM10 19.408C8.53404 19.408 7.34304 18.261 7.24404 16.82H12.756C12.656 18.26 11.466 19.407 10 19.407V19.408Z" fill="black"/>
</svg>
