<svg width="20" height="20" viewBox="0 0 20 20" fill="none" xmlns="http://www.w3.org/2000/svg">
<path d="M17.75 0H2.25C1.013 0 0 1.013 0 2.25V17.75C0 18.987 1.013 20 2.25 20H17.75C18.987 20 20 18.987 20 17.75V2.25C20 1.013 18.987 0 17.75 0ZM9 14.75H5C4.586 14.75 4.25 14.414 4.25 14C4.25 13.586 4.586 13.25 5 13.25H9C9.414 13.25 9.75 13.586 9.75 14C9.75 14.414 9.414 14.75 9 14.75ZM15 10.75H5C4.586 10.75 4.25 10.414 4.25 10C4.25 9.586 4.586 9.25 5 9.25H15C15.414 9.25 15.75 9.586 15.75 10C15.75 10.414 15.414 10.75 15 10.75ZM15 6.75H5C4.586 6.75 4.25 6.414 4.25 6C4.25 5.586 4.586 5.25 5 5.25H15C15.414 5.25 15.75 5.586 15.75 6C15.75 6.414 15.414 6.75 15 6.75Z" fill="black"/>
</svg>
