<svg width="18" height="20" viewBox="0 0 18 20" fill="none" xmlns="http://www.w3.org/2000/svg">
<path d="M9.00001 12.315C6.91201 12.315 5.21301 10.617 5.21301 8.52899C5.21301 6.44099 6.91301 4.73999 9.00001 4.73999C11.087 4.73999 12.787 6.43999 12.787 8.52699C12.787 10.614 11.087 12.312 9.00001 12.312V12.315ZM9.00001 6.24199C7.74001 6.24199 6.71301 7.26799 6.71301 8.52899C6.71301 9.78999 7.74001 10.814 9.00001 10.814C10.26 10.814 11.287 9.78899 11.287 8.52799C11.287 7.26699 10.26 6.23999 9.00001 6.23999V6.24199Z" fill="#5B7083"/>
<path d="M17.692 8.69C17.692 3.9 13.792 0 8.99998 0C4.20798 0 0.307983 3.9 0.307983 8.69C0.307983 10.592 0.910983 12.398 2.05098 13.913L2.05398 13.911L2.06098 13.926C3.68898 15.996 8.33898 19.683 8.53598 19.838C8.67398 19.948 8.83798 20.001 9.00098 20.001C9.16398 20.001 9.32798 19.948 9.46598 19.839C9.66298 19.684 14.313 15.999 15.941 13.927L15.948 13.913L15.95 13.915C17.09 12.399 17.692 10.595 17.692 8.692V8.69ZM8.99998 18.29C7.77598 17.3 4.47998 14.575 3.24398 13.005C2.30398 11.755 1.80798 10.263 1.80798 8.693C1.80798 4.727 5.03498 1.5 8.99998 1.5C12.965 1.5 16.192 4.726 16.192 8.69C16.192 10.26 15.695 11.752 14.756 13.003C13.52 14.573 10.224 17.297 8.99998 18.288V18.29Z" fill="#5B7083"/>
</svg>
