<svg width="20" height="20" viewBox="0 0 20 20" fill="none" xmlns="http://www.w3.org/2000/svg">
<path d="M18.5849 7.46801C19.2449 7.46801 19.7849 6.93001 19.7849 6.26801C19.7849 5.60601 19.2449 5.06801 18.5849 5.06801H15.3649L15.6749 1.52101C15.7019 1.20301 15.6049 0.891013 15.3979 0.646013C15.1919 0.401013 14.9029 0.250013 14.5759 0.221013C13.9259 0.186013 13.3409 0.653013 13.2829 1.31401L12.9569 5.06801H7.89994L8.20794 1.52301C8.26794 0.865013 7.77794 0.281013 7.11094 0.221013C6.44594 0.171013 5.87594 0.651013 5.81794 1.31301L5.49294 5.06701H2.16294C1.49994 5.06701 0.962942 5.60501 0.962942 6.26701C0.962942 6.92901 1.50094 7.46701 2.16294 7.46701H5.28494L4.84494 12.531H1.41594C0.753942 12.531 0.215942 13.071 0.215942 13.731C0.215942 14.391 0.753942 14.933 1.41594 14.933H4.63594L4.32594 18.481C4.26894 19.138 4.75794 19.721 5.41594 19.781L5.52194 19.786C6.14794 19.786 6.66194 19.314 6.71694 18.688L7.04394 14.935H12.0999L11.7919 18.479C11.7319 19.137 12.2219 19.721 12.8819 19.781L12.9879 19.786C13.6049 19.786 14.1299 19.304 14.1829 18.688L14.5079 14.935H17.8379C18.4979 14.935 19.0379 14.395 19.0379 13.735C19.0379 13.075 18.4979 12.533 17.8379 12.533H14.7159L15.1559 7.46901H18.5859L18.5849 7.46801ZM12.7469 7.46801L12.3069 12.531H7.25294L7.69294 7.46901H12.7479L12.7469 7.46801Z" fill="white"/>
</svg>
